<svg width="446" height="321" viewBox="0 0 446 321" fill="none" xmlns="http://www.w3.org/2000/svg">
<ellipse cx="223" cy="94.2615" rx="98.2961" ry="94.2615" fill="white"/>
<ellipse cx="98.2961" cy="132.406" rx="98.2961" ry="94.2615" fill="white"/>
<ellipse cx="151.112" cy="226.301" rx="98.2961" ry="94.2615" fill="white"/>
<ellipse cx="347.704" cy="220.433" rx="98.2961" ry="94.2615" fill="white"/>
<ellipse cx="196.592" cy="220.433" rx="98.2961" ry="94.2615" fill="white"/>
<ellipse cx="98.2961" cy="74.4556" rx="98.2961" ry="74.4556" transform="matrix(1 0 0 -1 196.592 220.066)" fill="white"/>
<ellipse cx="356.507" cy="96.8289" rx="89.4934" ry="91.6941" fill="white"/>
<ellipse cx="223" cy="94.2615" rx="98.2961" ry="94.2615" fill="white"/>
<ellipse cx="98.2961" cy="132.406" rx="98.2961" ry="94.2615" fill="white"/>
<ellipse cx="151.112" cy="226.301" rx="98.2961" ry="94.2615" fill="white"/>
<ellipse cx="347.704" cy="220.433" rx="98.2961" ry="94.2615" fill="white"/>
<ellipse cx="196.592" cy="220.433" rx="98.2961" ry="94.2615" fill="white"/>
<ellipse cx="98.2961" cy="74.4556" rx="98.2961" ry="74.4556" transform="matrix(1 0 0 -1 196.592 220.066)" fill="white"/>
<ellipse cx="356.507" cy="96.8289" rx="89.4934" ry="91.6941" fill="white"/>
</svg>
